<svg width="35" height="35" viewBox="0 0 35 35" fill="none" xmlns="http://www.w3.org/2000/svg">
<path d="M0 17.5C0 7.83504 7.83504 0 17.5 0C27.165 0 35 7.83504 35 17.5C35 27.165 27.165 35 17.5 35C7.83504 35 0 27.165 0 17.5Z" fill="#FFE812"/>
<path d="M17.5 8.02081C11.0566 8.02081 5.83333 12.1393 5.83333 17.2195C5.83333 20.504 8.01704 23.386 11.3019 25.0135C11.1231 25.6298 10.1535 28.9783 10.1148 29.2414C10.1148 29.2414 10.0917 29.439 10.2196 29.5144C10.3477 29.5898 10.4982 29.5312 10.4982 29.5312C10.8652 29.48 14.7546 26.7479 15.4278 26.2735C16.1004 26.3688 16.7928 26.4183 17.5 26.4183C23.9433 26.4183 29.1667 22.2999 29.1667 17.2195C29.1667 12.1393 23.9433 8.02081 17.5 8.02081Z" fill="#381F1F"/>
<path fill-rule="evenodd" clip-rule="evenodd" d="M11.0496 20.4307C10.6784 20.4307 10.3765 20.1424 10.3765 19.7879V15.7893H9.32633C8.96211 15.7893 8.66585 15.4936 8.66585 15.1302C8.66585 14.7669 8.96218 14.4712 9.32633 14.4712H12.773C13.1372 14.4712 13.4334 14.7669 13.4334 15.1302C13.4334 15.4936 13.1371 15.7893 12.773 15.7893H11.7227V19.7879C11.7227 20.1424 11.4209 20.4307 11.0496 20.4307ZM16.9516 20.422C16.6709 20.422 16.4563 20.308 16.3915 20.1247L16.0582 19.2522L14.0058 19.252L13.6723 20.1251C13.6078 20.3081 13.3932 20.422 13.1125 20.422C12.9649 20.4221 12.8189 20.3904 12.6846 20.3291C12.4991 20.2435 12.3207 20.0081 12.5251 19.3733L14.1351 15.1356C14.2486 14.8133 14.593 14.4813 15.0315 14.4713C15.4711 14.4812 15.8155 14.8133 15.9292 15.1363L17.5386 19.3721C17.7434 20.0083 17.565 20.2439 17.3795 20.3292C17.2451 20.3904 17.0992 20.4221 16.9516 20.422ZM15.032 16.1501L15.7043 18.0599H14.3597L15.032 16.1501ZM18.6217 20.3326C18.266 20.3326 17.9767 20.0557 17.9767 19.7156V15.1443C17.9767 14.7731 18.2849 14.4712 18.6638 14.4712C19.0426 14.4712 19.3509 14.7731 19.3509 15.1443V19.0986H20.7812C21.1369 19.0986 21.4263 19.3754 21.4263 19.7156C21.4263 20.0557 21.1369 20.3326 20.7812 20.3326H18.6217ZM21.688 19.7489C21.688 20.1201 21.9899 20.422 22.3611 20.422C22.5396 20.4217 22.7108 20.3507 22.837 20.2245C22.9632 20.0982 23.0342 19.9271 23.0344 19.7485V18.28L23.268 18.0464L24.8465 20.1379C24.909 20.2214 24.9901 20.2891 25.0835 20.3356C25.1769 20.382 25.2798 20.406 25.3841 20.4055C25.5304 20.4058 25.6726 20.3581 25.789 20.2696C25.8597 20.2166 25.9192 20.1501 25.9641 20.0739C26.0089 19.9977 26.0382 19.9133 26.0501 19.8258C26.0627 19.7382 26.0578 19.6491 26.0355 19.5635C26.0134 19.4779 25.9744 19.3975 25.9209 19.3271L24.2641 17.1322L25.798 15.5986C25.9034 15.493 25.9563 15.3475 25.9465 15.1888C25.9368 15.0314 25.8665 14.8799 25.7486 14.7621C25.6222 14.6358 25.4535 14.5633 25.2855 14.5633C25.1414 14.5633 25.0087 14.6164 24.9121 14.7131L23.0342 16.591V15.1443C23.0342 14.7731 22.7323 14.4712 22.3611 14.4712C21.9899 14.4712 21.688 14.7731 21.688 15.1443V19.7489Z" fill="#FFE812"/>
</svg>
