<svg width="25" height="25" viewBox="0 0 25 25" fill="none" xmlns="http://www.w3.org/2000/svg">
<path d="M19.7917 9.37467C19.7917 13.1585 16.1133 19.0279 13.0767 22.3155C12.7644 22.6535 12.2357 22.6535 11.9234 22.3155C8.8868 19.0279 5.20837 13.1585 5.20837 9.37467C5.20837 5.3476 8.47296 2.08301 12.5 2.08301C16.5271 2.08301 19.7917 5.3476 19.7917 9.37467Z" fill="#C2A7CB"/>
<path d="M19.7917 9.37467C19.7917 13.1585 16.1133 19.0279 13.0767 22.3155C12.7644 22.6535 12.2357 22.6535 11.9234 22.3155C8.8868 19.0279 5.20837 13.1585 5.20837 9.37467C5.20837 5.3476 8.47296 2.08301 12.5 2.08301C16.5271 2.08301 19.7917 5.3476 19.7917 9.37467Z" stroke="#C2A7CB" stroke-width="1.66667" stroke-linejoin="round"/>
<path d="M19.7917 9.37467C19.7917 13.1585 16.1133 19.0279 13.0767 22.3155C12.7644 22.6535 12.2357 22.6535 11.9234 22.3155C8.8868 19.0279 5.20837 13.1585 5.20837 9.37467C5.20837 5.3476 8.47296 2.08301 12.5 2.08301C16.5271 2.08301 19.7917 5.3476 19.7917 9.37467Z" stroke="#C2A7CB" stroke-width="1.66667" stroke-linejoin="round"/>
<circle cx="12.5" cy="9.375" r="3.125" fill="white"/>
<circle cx="12.5" cy="9.375" r="3.125" stroke="#C2A7CB" stroke-width="1.66667"/>
<circle cx="12.5" cy="9.375" r="3.125" stroke="#C2A7CB" stroke-width="1.66667"/>
</svg>
