<svg width="38" height="37" viewBox="0 0 38 37" fill="none" xmlns="http://www.w3.org/2000/svg">
<ellipse cx="19" cy="18.5" rx="19" ry="18.5" fill="#F1EBF5"/>
<path d="M19 18.9186C17.625 18.9186 16.5 18.5024 15.625 17.67C14.75 16.8376 14.3125 15.7674 14.3125 14.4593C14.3125 13.1512 14.75 12.081 15.625 11.2486C16.5 10.4162 17.625 10 19 10C20.375 10 21.5 10.4162 22.375 11.2486C23.25 12.081 23.6875 13.1512 23.6875 14.4593C23.6875 15.7674 23.25 16.8376 22.375 17.67C21.5 18.5024 20.375 18.9186 19 18.9186ZM10.875 28.4615C10.3542 28.4615 9.91146 28.2881 9.54688 27.9413C9.18229 27.5944 9 27.1733 9 26.6778V25.667C9 24.9139 9.19792 24.2698 9.59375 23.7347C9.98958 23.1996 10.5 22.7933 11.125 22.5158C12.5208 21.9212 13.8594 21.4753 15.1406 21.178C16.4219 20.8807 17.7083 20.7321 19 20.7321C20.2917 20.7321 21.5729 20.8857 22.8438 21.1929C24.1146 21.5001 25.4479 21.941 26.8438 22.5158C27.4896 22.7933 28.0104 23.1996 28.4062 23.7347C28.8021 24.2698 29 24.9139 29 25.667V26.6778C29 27.1733 28.8177 27.5944 28.4531 27.9413C28.0885 28.2881 27.6458 28.4615 27.125 28.4615H10.875Z" fill="#C6B0CD"/>
</svg>
