<svg width="130" height="130" viewBox="0 0 130 130" fill="none" xmlns="http://www.w3.org/2000/svg">
<circle cx="65" cy="65" r="65" fill="#D4BADC"/>
<path d="M65 64.1802C61.7 64.1802 59 63.1451 56.9 61.075C54.8 59.0048 53.75 56.3432 53.75 53.0901C53.75 49.837 54.8 47.1754 56.9 45.1052C59 43.0351 61.7 42 65 42C68.3 42 71 43.0351 73.1 45.1052C75.2 47.1754 76.25 49.837 76.25 53.0901C76.25 56.3432 75.2 59.0048 73.1 61.075C71 63.1451 68.3 64.1802 65 64.1802ZM45.5 87.913C44.25 87.913 43.1875 87.4818 42.3125 86.6192C41.4375 85.7566 41 84.7092 41 83.477V80.9632C41 79.0902 41.475 77.4883 42.425 76.1575C43.375 74.8267 44.6 73.8163 46.1 73.1262C49.45 71.6476 52.6625 70.5385 55.7375 69.7992C58.8125 69.0599 61.9 68.6902 65 68.6902C68.1 68.6902 71.175 69.0722 74.225 69.8362C77.275 70.6002 80.475 71.6968 83.825 73.1262C85.375 73.8163 86.625 74.8267 87.575 76.1575C88.525 77.4883 89 79.0902 89 80.9632V83.477C89 84.7092 88.5625 85.7566 87.6875 86.6192C86.8125 87.4818 85.75 87.913 84.5 87.913H45.5Z" fill="#A676B2"/>
</svg>
