<svg width="10" height="10" viewBox="0 0 10 10" fill="none" xmlns="http://www.w3.org/2000/svg">
<path d="M8.88889 1H8.33333V0H7.22222V1H2.77778V0H1.66667V1H1.11111C0.494444 1 0.00555555 1.45 0.00555555 2L0 9C0 9.55 0.494444 10 1.11111 10H8.88889C9.5 10 10 9.55 10 9V2C10 1.45 9.5 1 8.88889 1ZM8.88889 9H1.11111V4H8.88889V9ZM3.33333 6H2.22222V5H3.33333V6ZM5.55556 6H4.44444V5H5.55556V6ZM7.77778 6H6.66667V5H7.77778V6ZM3.33333 8H2.22222V7H3.33333V8ZM5.55556 8H4.44444V7H5.55556V8ZM7.77778 8H6.66667V7H7.77778V8Z" fill="#767676"/>
</svg>
