<svg width="36" height="34" viewBox="0 0 36 34" fill="none" xmlns="http://www.w3.org/2000/svg">
<g clip-path="url(#clip0_626_168)">
<path d="M25.5 29.75V26.9167C25.5 25.4138 24.8679 23.9724 23.7426 22.9097C22.6174 21.847 21.0913 21.25 19.5 21.25H7.5C5.9087 21.25 4.38258 21.847 3.25736 22.9097C2.13214 23.9724 1.5 25.4138 1.5 26.9167V29.75M34.5 29.75V26.9167C34.499 25.6611 34.0565 24.4414 33.242 23.4491C32.4276 22.4568 31.2872 21.7481 30 21.4342M24 4.43417C25.2906 4.74626 26.4346 5.45516 27.2515 6.44911C28.0684 7.44305 28.5118 8.66551 28.5118 9.92375C28.5118 11.182 28.0684 12.4044 27.2515 13.3984C26.4346 14.3923 25.2906 15.1012 24 15.4133M19.5 9.91667C19.5 13.0463 16.8137 15.5833 13.5 15.5833C10.1863 15.5833 7.5 13.0463 7.5 9.91667C7.5 6.78705 10.1863 4.25 13.5 4.25C16.8137 4.25 19.5 6.78705 19.5 9.91667Z" stroke-width="4" stroke-linecap="round" stroke-linejoin="round"/>
</g>
<defs>
<clipPath id="clip0_626_168">
<rect width="36" height="34" fill="white"/>
</clipPath>
</defs>
</svg>
