<svg width="26" height="24" viewBox="0 0 26 24" fill="none" xmlns="http://www.w3.org/2000/svg">
<path d="M11.9167 3.99998H4.33333C3.7587 3.99998 3.20759 4.2107 2.80127 4.58577C2.39494 4.96084 2.16666 5.46955 2.16666 5.99998V20C2.16666 20.5304 2.39494 21.0391 2.80127 21.4142C3.20759 21.7893 3.7587 22 4.33333 22H19.5C20.0746 22 20.6257 21.7893 21.0321 21.4142C21.4384 21.0391 21.6667 20.5304 21.6667 20V13M20.0417 2.49998C20.4726 2.10216 21.0572 1.87866 21.6667 1.87866C22.2762 1.87866 22.8607 2.10216 23.2917 2.49998C23.7226 2.89781 23.9648 3.43737 23.9648 3.99998C23.9648 4.56259 23.7226 5.10216 23.2917 5.49998L13 15L8.66666 16L9.75 12L20.0417 2.49998Z" stroke="#111111" stroke-opacity="0.76" stroke-linecap="round" stroke-linejoin="round"/>
</svg>
