<svg width="7" height="6" viewBox="0 0 7 6" fill="none" xmlns="http://www.w3.org/2000/svg">
<path d="M5.97527 0.530444C5.82866 0.362277 5.6546 0.228876 5.46301 0.137861C5.27142 0.0468457 5.06607 0 4.85869 0C4.65131 0 4.44596 0.0468457 4.25437 0.137861C4.06279 0.228876 3.88872 0.362277 3.74211 0.530444L3.43785 0.879284L3.13359 0.530444C2.83745 0.190919 2.43581 0.000175987 2.01701 0.000175991C1.59821 0.000175995 1.19657 0.190919 0.90043 0.530444C0.604294 0.869968 0.437927 1.33046 0.437927 1.81062C0.437927 2.29078 0.604294 2.75128 0.90043 3.0908L1.20469 3.43964L3.43785 6L5.67101 3.43964L5.97527 3.0908C6.12195 2.92271 6.2383 2.72314 6.31768 2.50348C6.39707 2.28383 6.43793 2.04839 6.43793 1.81062C6.43793 1.57286 6.39707 1.33742 6.31768 1.11776C6.2383 0.898104 6.12195 0.698531 5.97527 0.530444Z" fill="#F62BA5"/>
</svg>
