<svg width="130" height="130" viewBox="0 0 130 130" fill="none" xmlns="http://www.w3.org/2000/svg">
<circle cx="65" cy="65" r="64.5" fill="#C2A7CB" stroke="#F4E5FF"/>
<path d="M79.9545 98.0003V91.8892C79.9545 88.6477 78.7477 85.5389 76.5996 83.2468C74.4514 80.9547 71.5379 79.667 68.5 79.667H48.4545C45.4166 79.667 42.5031 80.9547 40.355 83.2468C38.2068 85.5389 37 88.6477 37 91.8892V98.0003" stroke="#F4E5FF" stroke-width="3" stroke-linecap="round" stroke-linejoin="round"/>
<path d="M58.4773 67.4444C64.8034 67.4444 69.9318 61.9724 69.9318 55.2222C69.9318 48.4721 64.8034 43 58.4773 43C52.1511 43 47.0227 48.4721 47.0227 55.2222C47.0227 61.9724 52.1511 67.4444 58.4773 67.4444Z" stroke="#F4E5FF" stroke-width="3" stroke-linecap="round" stroke-linejoin="round"/>
<path d="M91.4092 58.2773V76.6107" stroke="#F4E5FF" stroke-width="3" stroke-linecap="round" stroke-linejoin="round"/>
<path d="M99.9999 67.4443H82.8181" stroke="#F4E5FF" stroke-width="3" stroke-linecap="round" stroke-linejoin="round"/>
</svg>
