<svg width="29" height="29" viewBox="0 0 29 29" fill="none" xmlns="http://www.w3.org/2000/svg">
<path d="M13.2917 4.68164H4.83334C4.1924 4.68164 3.57771 4.92827 3.1245 5.36729C2.67128 5.8063 2.41667 6.40173 2.41667 7.02258V23.4092C2.41667 24.03 2.67128 24.6255 3.1245 25.0645C3.57771 25.5035 4.1924 25.7501 4.83334 25.7501H21.75C22.3909 25.7501 23.0056 25.5035 23.4588 25.0645C23.9121 24.6255 24.1667 24.03 24.1667 23.4092V15.2159" stroke="black" stroke-width="2" stroke-linecap="round" stroke-linejoin="round"/>
<path d="M22.3542 2.92597C22.8349 2.46033 23.4869 2.19873 24.1667 2.19873C24.8465 2.19873 25.4985 2.46033 25.9792 2.92597C26.4599 3.39161 26.7299 4.02316 26.7299 4.68167C26.7299 5.34019 26.4599 5.97174 25.9792 6.43738L14.5 17.5569L9.66667 18.7273L10.875 14.0454L22.3542 2.92597Z" stroke="black" stroke-width="2" stroke-linecap="round" stroke-linejoin="round"/>
</svg>
