<svg width="29" height="25" viewBox="0 0 29 25" fill="none" xmlns="http://www.w3.org/2000/svg">
<path d="M20.6364 23.2723V20.7976C20.6364 19.4849 20.1192 18.226 19.1985 17.2978C18.2779 16.3696 17.0292 15.8481 15.7273 15.8481H5.90909C4.60712 15.8481 3.35847 16.3696 2.43784 17.2978C1.51721 18.226 1 19.4849 1 20.7976V23.2723" stroke="black" stroke-width="2" stroke-linecap="round" stroke-linejoin="round"/>
<path d="M10.8182 10.8989C13.5294 10.8989 15.7273 8.68292 15.7273 5.94943C15.7273 3.21593 13.5294 1 10.8182 1C8.10699 1 5.90912 3.21593 5.90912 5.94943C5.90912 8.68292 8.10699 10.8989 10.8182 10.8989Z" stroke="black" stroke-width="2" stroke-linecap="round" stroke-linejoin="round"/>
<path d="M28 23.2721V20.7974C27.9992 19.7007 27.6372 18.6354 26.9708 17.7687C26.3044 16.902 25.3713 16.2829 24.3182 16.0088" stroke="black" stroke-width="2" stroke-linecap="round" stroke-linejoin="round"/>
<path d="M19.4091 1.16064C20.4651 1.43324 21.401 2.05241 22.0694 2.92055C22.7377 3.78869 23.1005 4.85642 23.1005 5.9554C23.1005 7.05439 22.7377 8.12211 22.0694 8.99025C21.401 9.85839 20.4651 10.4776 19.4091 10.7502" stroke="black" stroke-width="2" stroke-linecap="round" stroke-linejoin="round"/>
</svg>
