<svg width="26" height="28" viewBox="0 0 26 28" fill="none" xmlns="http://www.w3.org/2000/svg">
<path d="M21 8.80138C21 6.73233 20.1571 4.74801 18.6569 3.28497C17.1566 1.82193 15.1217 1 13 1C10.8783 1 8.84344 1.82193 7.34315 3.28497C5.84286 4.74801 5 6.73233 5 8.80138C5 17.903 1 20.5035 1 20.5035H25C25 20.5035 21 17.903 21 8.80138Z" stroke="black" stroke-width="2" stroke-linecap="round" stroke-linejoin="round"/>
<path d="M15.3067 25.7046C15.0723 26.0987 14.7358 26.4258 14.331 26.6531C13.9262 26.8805 13.4672 27.0002 13 27.0002C12.5329 27.0002 12.0739 26.8805 11.6691 26.6531C11.2642 26.4258 10.9278 26.0987 10.6934 25.7046" stroke="black" stroke-width="2" stroke-linecap="round" stroke-linejoin="round"/>
</svg>
