<svg width="26" height="24" viewBox="0 0 26 24" fill="none" xmlns="http://www.w3.org/2000/svg">
<path d="M12.8 13C13.3891 13 13.8667 12.5523 13.8667 12C13.8667 11.4477 13.3891 11 12.8 11C12.2109 11 11.7333 11.4477 11.7333 12C11.7333 12.5523 12.2109 13 12.8 13Z" stroke="black" stroke-width="2" stroke-linecap="round" stroke-linejoin="round"/>
<path d="M12.8 6C13.3891 6 13.8667 5.55228 13.8667 5C13.8667 4.44772 13.3891 4 12.8 4C12.2109 4 11.7333 4.44772 11.7333 5C11.7333 5.55228 12.2109 6 12.8 6Z" stroke="black" stroke-width="2" stroke-linecap="round" stroke-linejoin="round"/>
<path d="M12.8 20C13.3891 20 13.8667 19.5523 13.8667 19C13.8667 18.4477 13.3891 18 12.8 18C12.2109 18 11.7333 18.4477 11.7333 19C11.7333 19.5523 12.2109 20 12.8 20Z" stroke="black" stroke-width="2" stroke-linecap="round" stroke-linejoin="round"/>
</svg>
