<svg width="37" height="36" viewBox="0 0 37 36" fill="none" xmlns="http://www.w3.org/2000/svg">
<path d="M18.1561 17.3913C15.6749 17.3913 13.6448 16.5797 12.0658 14.9565C10.4869 13.3333 9.6974 11.2464 9.6974 8.69565C9.6974 6.14493 10.4869 4.05797 12.0658 2.43478C13.6448 0.811594 15.6749 0 18.1561 0C20.6374 0 22.6675 0.811594 24.2465 2.43478C25.8254 4.05797 26.6149 6.14493 26.6149 8.69565C26.6149 11.2464 25.8254 13.3333 24.2465 14.9565C22.6675 16.5797 20.6374 17.3913 18.1561 17.3913ZM3.49431 36C2.55445 36 1.75557 35.6618 1.09766 34.9855C0.439761 34.3092 0.110809 33.4879 0.110809 32.5217V30.5507C0.110809 29.0821 0.467957 27.8261 1.18225 26.7826C1.89655 25.7391 2.81761 24.9469 3.94544 24.4058C6.46427 23.2464 8.87972 22.3768 11.1918 21.7971C13.5038 21.2174 15.8253 20.9275 18.1561 20.9275C20.487 20.9275 22.7991 21.2271 25.0923 21.8261C27.3856 22.4251 29.7916 23.285 32.3105 24.4058C33.4759 24.9469 34.4158 25.7391 35.13 26.7826C35.8443 27.8261 36.2015 29.0821 36.2015 30.5507V32.5217C36.2015 33.4879 35.8725 34.3092 35.2146 34.9855C34.5567 35.6618 33.7578 36 32.818 36H3.49431Z" fill="#6F6F71"/>
</svg>
