<svg width="44" height="44" viewBox="0 0 44 44" fill="none" xmlns="http://www.w3.org/2000/svg">
<path d="M21.5417 22.0002C19.567 22.0002 17.8766 21.2821 16.4704 19.846C15.0642 18.4099 14.3611 16.6835 14.3611 14.6668C14.3611 12.6502 15.0642 10.9238 16.4704 9.48766C17.8766 8.05155 19.567 7.3335 21.5417 7.3335C23.5163 7.3335 25.2067 8.05155 26.6129 9.48766C28.0191 10.9238 28.7222 12.6502 28.7222 14.6668C28.7222 16.6835 28.0191 18.4099 26.6129 19.846C25.2067 21.2821 23.5163 22.0002 21.5417 22.0002ZM7.18056 36.6668V31.5335C7.18056 30.4946 7.44235 29.5397 7.96593 28.6689C8.48951 27.7981 9.18513 27.1335 10.0528 26.6752C11.9078 25.7279 13.7927 25.0175 15.7075 24.5439C17.6223 24.0703 19.567 23.8335 21.5417 23.8335C23.5163 23.8335 25.4611 24.0703 27.3759 24.5439C29.2907 25.0175 31.1756 25.7279 33.0306 26.6752C33.8982 27.1335 34.5938 27.7981 35.1174 28.6689C35.641 29.5397 35.9028 30.4946 35.9028 31.5335V36.6668H7.18056ZM10.7708 33.0002H32.3125V31.5335C32.3125 31.1974 32.2302 30.8918 32.0657 30.6168C31.9011 30.3418 31.6842 30.1279 31.4149 29.9752C29.7993 29.1502 28.1687 28.5314 26.5232 28.1189C24.8776 27.7064 23.2171 27.5002 21.5417 27.5002C19.8662 27.5002 18.2057 27.7064 16.5602 28.1189C14.9146 28.5314 13.284 29.1502 11.6684 29.9752C11.3991 30.1279 11.1822 30.3418 11.0177 30.6168C10.8531 30.8918 10.7708 31.1974 10.7708 31.5335V33.0002ZM21.5417 18.3335C22.529 18.3335 23.3742 17.9745 24.0773 17.2564C24.7804 16.5384 25.1319 15.6752 25.1319 14.6668C25.1319 13.6585 24.7804 12.7953 24.0773 12.0772C23.3742 11.3592 22.529 11.0002 21.5417 11.0002C20.5543 11.0002 19.7091 11.3592 19.006 12.0772C18.3029 12.7953 17.9514 13.6585 17.9514 14.6668C17.9514 15.6752 18.3029 16.5384 19.006 17.2564C19.7091 17.9745 20.5543 18.3335 21.5417 18.3335Z" fill="#0B0B0B"/>
</svg>
