<svg width="50" height="50" viewBox="0 0 50 50" fill="none" xmlns="http://www.w3.org/2000/svg">
<path d="M10.4167 43.75C9.27083 43.75 8.28125 43.3507 7.44792 42.5521C6.64931 41.7188 6.25 40.7292 6.25 39.5833V10.4167C6.25 9.27083 6.64931 8.29861 7.44792 7.5C8.28125 6.66667 9.27083 6.25 10.4167 6.25H39.5833C40.7292 6.25 41.7014 6.66667 42.5 7.5C43.3333 8.29861 43.75 9.27083 43.75 10.4167V39.5833C43.75 40.7292 43.3333 41.7188 42.5 42.5521C41.7014 43.3507 40.7292 43.75 39.5833 43.75H10.4167ZM10.4167 39.5833H39.5833V10.4167H10.4167V39.5833ZM12.5 35.4167H37.5L29.6875 25L23.4375 33.3333L18.75 27.0833L12.5 35.4167ZM10.4167 39.5833V10.4167V39.5833Z" fill="#1D1B20"/>
</svg>
