<svg width="48" height="46" viewBox="0 0 48 46" fill="none" xmlns="http://www.w3.org/2000/svg">
<path d="M24 22.1802C20.7 22.1802 18 21.1451 15.9 19.075C13.8 17.0048 12.75 14.3432 12.75 11.0901C12.75 7.83701 13.8 5.17538 15.9 3.10523C18 1.03508 20.7 0 24 0C27.3 0 30 1.03508 32.1 3.10523C34.2 5.17538 35.25 7.83701 35.25 11.0901C35.25 14.3432 34.2 17.0048 32.1 19.075C30 21.1451 27.3 22.1802 24 22.1802ZM4.5 45.913C3.25 45.913 2.1875 45.4818 1.3125 44.6192C0.4375 43.7566 0 42.7092 0 41.477V38.9632C0 37.0902 0.475 35.4883 1.425 34.1575C2.375 32.8267 3.6 31.8163 5.1 31.1262C8.45 29.6476 11.6625 28.5385 14.7375 27.7992C17.8125 27.0599 20.9 26.6902 24 26.6902C27.1 26.6902 30.175 27.0722 33.225 27.8362C36.275 28.6002 39.475 29.6968 42.825 31.1262C44.375 31.8163 45.625 32.8267 46.575 34.1575C47.525 35.4883 48 37.0902 48 38.9632V41.477C48 42.7092 47.5625 43.7566 46.6875 44.6192C45.8125 45.4818 44.75 45.913 43.5 45.913H4.5Z" fill="#A676B2"/>
</svg>
