<svg width="22" height="22" viewBox="0 0 22 22" fill="none" xmlns="http://www.w3.org/2000/svg">
<g clip-path="url(#clip0_353_974)">
<path d="M21.0833 17.4167C21.0833 17.9029 20.8902 18.3692 20.5464 18.713C20.2025 19.0568 19.7362 19.25 19.25 19.25H2.75001C2.26377 19.25 1.79746 19.0568 1.45364 18.713C1.10983 18.3692 0.916672 17.9029 0.916672 17.4167V7.33333C0.916672 6.8471 1.10983 6.38079 1.45364 6.03697C1.79746 5.69315 2.26377 5.5 2.75001 5.5H6.41667L8.25 2.75H13.75L15.5833 5.5H19.25C19.7362 5.5 20.2025 5.69315 20.5464 6.03697C20.8902 6.38079 21.0833 6.8471 21.0833 7.33333V17.4167Z" stroke="white" stroke-width="2" stroke-linecap="round" stroke-linejoin="round"/>
<path d="M11 15.5833C13.025 15.5833 14.6667 13.9417 14.6667 11.9167C14.6667 9.89162 13.025 8.25 11 8.25C8.97495 8.25 7.33333 9.89162 7.33333 11.9167C7.33333 13.9417 8.97495 15.5833 11 15.5833Z" stroke="white" stroke-width="2" stroke-linecap="round" stroke-linejoin="round"/>
</g>
<defs>
<clipPath id="clip0_353_974">
<rect width="22" height="22" fill="white"/>
</clipPath>
</defs>
</svg>
