<svg width="36" height="30" viewBox="0 0 36 30" fill="none" xmlns="http://www.w3.org/2000/svg">
<path d="M25.5 27.75V24.9167C25.5 23.4138 24.8679 21.9724 23.7426 20.9097C22.6174 19.847 21.0913 19.25 19.5 19.25H7.5C5.9087 19.25 4.38258 19.847 3.25736 20.9097C2.13214 21.9724 1.5 23.4138 1.5 24.9167V27.75M34.5 27.75V24.9167C34.499 23.6611 34.0565 22.4414 33.242 21.4491C32.4276 20.4568 31.2872 19.7481 30 19.4342M24 2.43417C25.2906 2.74626 26.4346 3.45516 27.2515 4.44911C28.0684 5.44305 28.5118 6.66551 28.5118 7.92375C28.5118 9.18199 28.0684 10.4044 27.2515 11.3984C26.4346 12.3923 25.2906 13.1012 24 13.4133M19.5 7.91667C19.5 11.0463 16.8137 13.5833 13.5 13.5833C10.1863 13.5833 7.5 11.0463 7.5 7.91667C7.5 4.78705 10.1863 2.25 13.5 2.25C16.8137 2.25 19.5 4.78705 19.5 7.91667Z" stroke-width="3.3" stroke-linecap="round" stroke-linejoin="round"/>
</svg>
